<svg width="28" height="24" viewBox="0 0 28 24" fill="none" xmlns="http://www.w3.org/2000/svg">
<path d="M12.9344 13.305C12.6189 13.2936 12.3033 13.2822 11.9734 13.2822C8.50217 13.2822 5.26046 14.045 2.49209 15.3543C1.22983 15.9463 0.498291 17.062 0.498291 18.2347V20.1132C0.498291 20.7394 1.14377 21.2517 1.93268 21.2517H13.7807C12.7676 20.1046 12.1555 18.7649 12.0069 17.369C11.8582 15.9731 12.1783 14.5708 12.9344 13.305Z" fill="#FAFAFA"/>
<path d="M11.1206 10.6259C14.0549 10.6259 16.4336 8.24725 16.4336 5.31297C16.4336 2.3787 14.0549 0 11.1206 0C8.18632 0 5.80762 2.3787 5.80762 5.31297C5.80762 8.24725 8.18632 10.6259 11.1206 10.6259Z" fill="#FAFAFA"/>
<path d="M25.722 17.2677C25.722 16.9749 25.6795 16.7087 25.637 16.4292L26.8268 15.4577C27.0818 15.2447 27.1384 14.8987 26.9685 14.6192L26.1328 13.2617C26.0527 13.128 25.9249 13.0253 25.7719 12.9717C25.6189 12.9181 25.4507 12.9171 25.2971 12.9689L23.7956 13.448C23.3423 13.0886 22.8324 12.8091 22.2658 12.6095L21.9542 11.1588C21.9208 11.0089 21.8337 10.8742 21.7074 10.7773C21.5811 10.6804 21.4232 10.6272 21.2601 10.6265H19.5887C19.2488 10.6265 18.9655 10.8527 18.8946 11.1588L18.583 12.6095C18.0164 12.8091 17.5065 13.0886 17.0532 13.448L15.5518 12.9689C15.3979 12.9192 15.2305 12.9213 15.0781 12.9747C14.9257 13.0281 14.7978 13.1295 14.7161 13.2617L13.8804 14.6192C13.7104 14.8987 13.767 15.2447 14.022 15.4577L15.2118 16.4292C15.1693 16.7087 15.1269 16.9749 15.1269 17.2677C15.1269 17.5605 15.1693 17.8267 15.2118 18.1062L14.022 19.0777C13.767 19.2907 13.7104 19.6367 13.8804 19.9162L14.7161 21.2737C14.8861 21.5532 15.2402 21.673 15.5518 21.5665L17.0532 21.0874C17.5065 21.4467 18.0164 21.7262 18.583 21.9258L18.8946 23.3765C18.9655 23.6826 19.2488 23.9089 19.5887 23.9089H21.2601C21.6001 23.9089 21.8834 23.6826 21.9542 23.3765L22.2658 21.9258C22.8324 21.7262 23.3423 21.4467 23.7956 21.0874L25.2971 21.5665C25.6228 21.673 25.9628 21.5399 26.1328 21.2737L26.9685 19.9162C27.1384 19.6367 27.0818 19.2907 26.8268 19.0777L25.637 18.1062C25.6795 17.8267 25.722 17.5605 25.722 17.2677ZM20.4103 19.9295C18.8521 19.9295 17.5773 18.7317 17.5773 17.2677C17.5773 15.8037 18.8521 14.6059 20.4103 14.6059C21.9684 14.6059 23.2432 15.8037 23.2432 17.2677C23.2432 18.7317 21.9684 19.9295 20.4103 19.9295Z" fill="#FAFAFA"/>
</svg>
