<svg width="25" height="24" viewBox="0 0 25 24" fill="none" xmlns="http://www.w3.org/2000/svg">
<path d="M1.94955 13.3188H9.94083C10.6734 13.3188 11.2727 12.7194 11.2727 11.9869V1.33188C11.2727 0.599346 10.6734 0 9.94083 0H1.94955C1.21702 0 0.617676 0.599346 0.617676 1.33188V11.9869C0.617676 12.7194 1.21702 13.3188 1.94955 13.3188ZM1.94955 23.9738H9.94083C10.6734 23.9738 11.2727 23.3745 11.2727 22.6419V17.3144C11.2727 16.5819 10.6734 15.9825 9.94083 15.9825H1.94955C1.21702 15.9825 0.617676 16.5819 0.617676 17.3144V22.6419C0.617676 23.3745 1.21702 23.9738 1.94955 23.9738ZM15.2683 23.9738H23.2596C23.9922 23.9738 24.5915 23.3745 24.5915 22.6419V11.9869C24.5915 11.2544 23.9922 10.655 23.2596 10.655H15.2683C14.5358 10.655 13.9365 11.2544 13.9365 11.9869V22.6419C13.9365 23.3745 14.5358 23.9738 15.2683 23.9738ZM13.9365 1.33188V6.6594C13.9365 7.39193 14.5358 7.99127 15.2683 7.99127H23.2596C23.9922 7.99127 24.5915 7.39193 24.5915 6.6594V1.33188C24.5915 0.599346 23.9922 0 23.2596 0H15.2683C14.5358 0 13.9365 0.599346 13.9365 1.33188Z" fill="#FAFAFA"/>
</svg>
